<svg width="168" height="157" viewBox="0 0 168 157" fill="none" xmlns="http://www.w3.org/2000/svg"><path d="M137.399 149.281c18.644-15.361 30.531-38.627 30.531-64.67 0-46.254-37.496-83.75-83.75-83.75-16.511 0-31.906 4.778-44.878 13.026h2.822v.005H74.69v.004a34.77 34.77 0 0 1 24.32 59.586l.137.137a34.77 34.77 0 0 1-24.584 59.357v.005H47.005a43.3 43.3 0 0 0 7.82 10.675 43.5 43.5 0 0 0 5.932 4.958 43.352 43.352 0 0 0 63.854-16.964l.008-.016a43.3 43.3 0 0 0 4.204-18.012V83.616c0-5.522 4.477-10 10-10s10 4.478 10 10v30.368q0 .396-.03.783a63.34 63.34 0 0 1-11.394 34.514m-100.304 4.601a63.3 63.3 0 0 1-11.725-20.901h-9.568a84.2 84.2 0 0 0 21.293 20.901M17.529 33.892a83.4 83.4 0 0 0-14.4 29.544h18.995V33.892zM.438 83.436q-.009.587-.008 1.175c0 9.958 1.738 19.51 4.927 28.37h16.767V83.436z" fill="#D9D9D9"/><path d="M42.124 112.981H74.56v-.004A14.773 14.773 0 0 0 85.005 87.76a14.78 14.78 0 0 0-10.151-4.324h-32.73zm42.975-53.87a14.77 14.77 0 0 1-10.21 4.325l-.33-.002v.002H42.125V33.892h32.53v.002A14.772 14.772 0 0 1 85.1 59.111" fill="#D9D9D9"/></svg>