<svg width="256" height="315" viewBox="0 0 256 315" fill="none" xmlns="http://www.w3.org/2000/svg"><path d="M.748 314v-46.546H20.93q5.317 0 8.931 1.432 3.637 1.432 5.478 4.046 1.863 2.613 1.863 6.159 0 2.568-1.136 4.681-1.113 2.114-3.136 3.546-2.023 1.409-4.728 1.954v.455q3 .114 5.455 1.523a10.44 10.44 0 0 1 3.909 3.841q1.454 2.431 1.454 5.727 0 3.818-2 6.795-1.977 2.978-5.636 4.682Q27.724 314 22.657 314zm12.636-10.091h5.91q3.18 0 4.772-1.182 1.59-1.205 1.59-3.545 0-1.637-.75-2.773t-2.136-1.727q-1.363-.591-3.295-.591h-6.09zm0-17.637h5.182q1.659 0 2.932-.522 1.272-.524 1.977-1.5.727-1 .727-2.432 0-2.159-1.545-3.296-1.545-1.159-3.91-1.159h-5.363zm57.659-18.818H83.68v29.818q0 5.319-2.546 9.205-2.523 3.864-7.045 5.977-4.522 2.091-10.5 2.091-6.022 0-10.546-2.091-4.522-2.113-7.045-5.977-2.5-3.886-2.5-9.205v-29.818h12.636v28.728q0 2.159.955 3.863a6.9 6.9 0 0 0 2.636 2.637q1.704.954 3.864.954 2.181 0 3.863-.954a6.9 6.9 0 0 0 2.637-2.637q.954-1.704.954-3.863zM107.594 314H89.685v-46.546h17.728q7.181 0 12.409 2.796 5.25 2.772 8.091 8 2.863 5.204 2.863 12.477t-2.841 12.5q-2.84 5.205-8.045 8Q114.686 314 107.594 314m-5.272-10.728h4.818q3.455 0 5.886-1.113 2.455-1.114 3.727-3.841 1.296-2.727 1.296-7.591t-1.318-7.591q-1.296-2.727-3.818-3.841-2.5-1.113-6.137-1.113h-4.454zm34.301-35.818h15.727l10.818 26.364h.546l10.818-26.364h15.727V314h-12.363v-26.909h-.364l-10.364 26.545h-7.454l-10.364-26.727h-.364V314h-12.363zm72.261 0V314h-12.636v-46.546zm46.262 0V314H244.6l-16.818-24.455h-.273V314h-12.636v-46.546H225.6l16.546 24.364h.363v-24.364z" fill="#fff"/><path d="M248.248 120.607c0 66.274-53.726 120-120 120s-120-53.726-120-120 53.726-120 120-120 120 53.726 120 120m-222 0c0 56.333 45.667 102 102 102s102-45.667 102-102-45.667-102-102-102-102 45.667-102 102" fill="#D9D9D9"/><path d="M181.467 185.276c18.644-15.36 30.531-38.626 30.531-64.669 0-46.254-37.496-83.75-83.75-83.75-16.511 0-31.906 4.778-44.877 13.026h2.821v.004h32.565v.004a34.77 34.77 0 0 1 24.32 59.587l.137.136a34.77 34.77 0 0 1-24.584 59.357v.006H91.073a43.5 43.5 0 0 0 6.657 9.467q.568.614 1.162 1.207a43.4 43.4 0 0 0 5.934 4.959 43.35 43.35 0 0 0 28.722 7.553 43.2 43.2 0 0 0 8.605-1.688 43.4 43.4 0 0 0 15.685-8.632 43.3 43.3 0 0 0 10.842-14.198l.008-.016a43.35 43.35 0 0 0 4.203-18.011v-30.006c0-5.523 4.477-10 10-10s10 4.477 10 10v30.368q0 .395-.03.783a63.34 63.34 0 0 1-11.394 34.513m-100.304 4.602a63.3 63.3 0 0 1-11.724-20.901h-9.57a84.2 84.2 0 0 0 21.294 20.901M61.597 69.887a83.4 83.4 0 0 0-14.4 29.545h18.995V69.887zm-17.091 49.545q-.008.587-.008 1.175c0 9.958 1.738 19.51 4.927 28.37h16.767v-29.545z" fill="#D9D9D9"/><path d="M86.192 148.977h32.436v-.005a14.773 14.773 0 0 0 .294-29.54h-32.73zm42.975-53.87a14.77 14.77 0 0 1-10.209 4.325l-.33-.002v.002H86.192V69.887h32.53v.003a14.772 14.772 0 0 1 10.445 25.217" fill="#D9D9D9"/></svg>